<svg id="visual" viewBox="0 0 960 540" width="960" height="540" xmlns="http://www.w3.org/2000/svg" xmlns:xlink="http://www.w3.org/1999/xlink" version="1.1"><rect x="0" y="0" width="960" height="540" fill="#0d1a24"></rect><defs><linearGradient id="grad1_0" x1="43.8%" y1="0%" x2="100%" y2="100%"><stop offset="14.444444444444446%" stop-color="#5f3cfa" stop-opacity="1"></stop><stop offset="85.55555555555554%" stop-color="#5f3cfa" stop-opacity="1"></stop></linearGradient></defs><defs><linearGradient id="grad1_1" x1="43.8%" y1="0%" x2="100%" y2="100%"><stop offset="14.444444444444446%" stop-color="#5f3cfa" stop-opacity="1"></stop><stop offset="85.55555555555554%" stop-color="#0045de" stop-opacity="1"></stop></linearGradient></defs><defs><linearGradient id="grad1_2" x1="43.8%" y1="0%" x2="100%" y2="100%"><stop offset="14.444444444444446%" stop-color="#0044bc" stop-opacity="1"></stop><stop offset="85.55555555555554%" stop-color="#0045de" stop-opacity="1"></stop></linearGradient></defs><defs><linearGradient id="grad1_3" x1="43.8%" y1="0%" x2="100%" y2="100%"><stop offset="14.444444444444446%" stop-color="#0044bc" stop-opacity="1"></stop><stop offset="85.55555555555554%" stop-color="#003d96" stop-opacity="1"></stop></linearGradient></defs><defs><linearGradient id="grad1_4" x1="43.8%" y1="0%" x2="100%" y2="100%"><stop offset="14.444444444444446%" stop-color="#00336e" stop-opacity="1"></stop><stop offset="85.55555555555554%" stop-color="#003d96" stop-opacity="1"></stop></linearGradient></defs><defs><linearGradient id="grad1_5" x1="43.8%" y1="0%" x2="100%" y2="100%"><stop offset="14.444444444444446%" stop-color="#00336e" stop-opacity="1"></stop><stop offset="85.55555555555554%" stop-color="#002748" stop-opacity="1"></stop></linearGradient></defs><defs><linearGradient id="grad1_6" x1="43.8%" y1="0%" x2="100%" y2="100%"><stop offset="14.444444444444446%" stop-color="#0d1a24" stop-opacity="1"></stop><stop offset="85.55555555555554%" stop-color="#002748" stop-opacity="1"></stop></linearGradient></defs><defs><linearGradient id="grad2_0" x1="0%" y1="0%" x2="56.3%" y2="100%"><stop offset="14.444444444444446%" stop-color="#5f3cfa" stop-opacity="1"></stop><stop offset="85.55555555555554%" stop-color="#5f3cfa" stop-opacity="1"></stop></linearGradient></defs><defs><linearGradient id="grad2_1" x1="0%" y1="0%" x2="56.3%" y2="100%"><stop offset="14.444444444444446%" stop-color="#0045de" stop-opacity="1"></stop><stop offset="85.55555555555554%" stop-color="#5f3cfa" stop-opacity="1"></stop></linearGradient></defs><defs><linearGradient id="grad2_2" x1="0%" y1="0%" x2="56.3%" y2="100%"><stop offset="14.444444444444446%" stop-color="#0045de" stop-opacity="1"></stop><stop offset="85.55555555555554%" stop-color="#0044bc" stop-opacity="1"></stop></linearGradient></defs><defs><linearGradient id="grad2_3" x1="0%" y1="0%" x2="56.3%" y2="100%"><stop offset="14.444444444444446%" stop-color="#003d96" stop-opacity="1"></stop><stop offset="85.55555555555554%" stop-color="#0044bc" stop-opacity="1"></stop></linearGradient></defs><defs><linearGradient id="grad2_4" x1="0%" y1="0%" x2="56.3%" y2="100%"><stop offset="14.444444444444446%" stop-color="#003d96" stop-opacity="1"></stop><stop offset="85.55555555555554%" stop-color="#00336e" stop-opacity="1"></stop></linearGradient></defs><defs><linearGradient id="grad2_5" x1="0%" y1="0%" x2="56.3%" y2="100%"><stop offset="14.444444444444446%" stop-color="#002748" stop-opacity="1"></stop><stop offset="85.55555555555554%" stop-color="#00336e" stop-opacity="1"></stop></linearGradient></defs><defs><linearGradient id="grad2_6" x1="0%" y1="0%" x2="56.3%" y2="100%"><stop offset="14.444444444444446%" stop-color="#002748" stop-opacity="1"></stop><stop offset="85.55555555555554%" stop-color="#0d1a24" stop-opacity="1"></stop></linearGradient></defs><g transform="translate(960, 0)"><path d="M0 297C-32.1 295.6 -64.2 294.1 -91.8 282.5C-119.4 270.8 -142.6 249 -166.9 229.8C-191.3 210.5 -216.8 194 -235.4 171C-254 148.1 -265.7 118.9 -274.9 89.3C-284 59.7 -290.5 29.9 -297 0L0 0Z" fill="#002135"></path><path d="M0 254.6C-27.5 253.3 -55 252.1 -78.7 242.1C-102.3 232.1 -122.2 213.4 -143.1 196.9C-164 180.5 -185.8 166.3 -201.8 146.6C-217.7 127 -227.8 101.9 -235.6 76.5C-243.4 51.2 -249 25.6 -254.6 0L0 0Z" fill="#002d5b"></path><path d="M0 212.1C-22.9 211.1 -45.8 210.1 -65.6 201.8C-85.3 193.4 -101.8 177.8 -119.2 164.1C-136.6 150.4 -154.9 138.5 -168.2 122.2C-181.5 105.8 -189.8 84.9 -196.3 63.8C-202.8 42.7 -207.5 21.3 -212.1 0L0 0Z" fill="#003882"></path><path d="M0 169.7C-18.3 168.9 -36.7 168.1 -52.4 161.4C-68.2 154.8 -81.5 142.3 -95.4 131.3C-109.3 120.3 -123.9 110.8 -134.5 97.7C-145.2 84.6 -151.9 67.9 -157.1 51C-162.3 34.1 -166 17.1 -169.7 0L0 0Z" fill="#0041a9"></path><path d="M0 127.3C-13.7 126.7 -27.5 126 -39.3 121.1C-51.2 116.1 -61.1 106.7 -71.5 98.5C-82 90.2 -92.9 83.1 -100.9 73.3C-108.9 63.5 -113.9 50.9 -117.8 38.3C-121.7 25.6 -124.5 12.8 -127.3 0L0 0Z" fill="#0045cd"></path><path d="M0 84.9C-9.2 84.4 -18.3 84 -26.2 80.7C-34.1 77.4 -40.7 71.1 -47.7 65.6C-54.7 60.2 -61.9 55.4 -67.3 48.9C-72.6 42.3 -75.9 34 -78.5 25.5C-81.1 17.1 -83 8.5 -84.9 0L0 0Z" fill="#3842ed"></path><path d="M0 42.4C-4.6 42.2 -9.2 42 -13.1 40.4C-17.1 38.7 -20.4 35.6 -23.8 32.8C-27.3 30.1 -31 27.7 -33.6 24.4C-36.3 21.2 -38 17 -39.3 12.8C-40.6 8.5 -41.5 4.3 -42.4 0L0 0Z" fill="#5f3cfa"></path></g><g transform="translate(0, 540)"><path d="M0 -297C30.7 -293 61.3 -289 91.2 -280.6C121 -272.1 150 -259.1 174.6 -240.3C199.1 -221.4 219.3 -196.7 234.6 -170.5C250 -144.2 260.5 -116.4 270.1 -87.8C279.7 -59.1 288.3 -29.5 297 0L0 0Z" fill="#002135"></path><path d="M0 -254.6C26.3 -251.2 52.6 -247.7 78.1 -240.5C103.7 -233.2 128.6 -222.1 149.6 -206C170.7 -189.8 188 -168.6 201.1 -146.1C214.2 -123.6 223.3 -99.8 231.5 -75.2C239.7 -50.7 247.2 -25.3 254.6 0L0 0Z" fill="#002d5b"></path><path d="M0 -212.1C21.9 -209.3 43.8 -206.5 65.1 -200.4C86.4 -194.3 107.1 -185.1 124.7 -171.6C142.2 -158.2 156.6 -140.5 167.6 -121.8C178.5 -103 186.1 -83.2 192.9 -62.7C199.8 -42.2 206 -21.1 212.1 0L0 0Z" fill="#003882"></path><path d="M0 -169.7C17.5 -167.4 35 -165.2 52.1 -160.3C69.1 -155.5 85.7 -148.1 99.8 -137.3C113.8 -126.5 125.3 -112.4 134.1 -97.4C142.8 -82.4 148.9 -66.5 154.3 -50.1C159.8 -33.8 164.8 -16.9 169.7 0L0 0Z" fill="#0041a9"></path><path d="M0 -127.3C13.1 -125.6 26.3 -123.9 39.1 -120.2C51.9 -116.6 64.3 -111.1 74.8 -103C85.3 -94.9 94 -84.3 100.5 -73.1C107.1 -61.8 111.6 -49.9 115.8 -37.6C119.9 -25.3 123.6 -12.7 127.3 0L0 0Z" fill="#0045cd"></path><path d="M0 -84.9C8.8 -83.7 17.5 -82.6 26 -80.2C34.6 -77.7 42.9 -74 49.9 -68.7C56.9 -63.3 62.7 -56.2 67 -48.7C71.4 -41.2 74.4 -33.3 77.2 -25.1C79.9 -16.9 82.4 -8.4 84.9 0L0 0Z" fill="#3842ed"></path><path d="M0 -42.4C4.4 -41.9 8.8 -41.3 13 -40.1C17.3 -38.9 21.4 -37 24.9 -34.3C28.4 -31.6 31.3 -28.1 33.5 -24.4C35.7 -20.6 37.2 -16.6 38.6 -12.5C40 -8.4 41.2 -4.2 42.4 0L0 0Z" fill="#5f3cfa"></path></g></svg>